<?xml version="1.0" encoding="UTF-8"?>
<svg version="1.1" xmlns="http://www.w3.org/2000/svg" width="128" height="128">
<path d="M0 0 C1 1 1 1 1.625 4.125 C0.90496797 8.58919859 0.38753553 8.91100899 -3.0625 11.5 C-4.70585688 12.6701524 -6.35163471 13.83691345 -8 15 C-16.14293054 21.41110073 -22.09620473 32.36180396 -23.78515625 42.609375 C-25.16183249 57.92802698 -22.45556891 72.85331731 -12.33984375 84.9921875 C-9.98471528 87.4063283 -7.53441304 89.57996318 -4.8828125 91.6640625 C0.25268285 95.78374558 3.23314089 99.30063365 4 106 C3.91961413 113.04381199 1.96058659 118.00650783 -2.5625 123.34375 C-11.29975457 129.28060246 -22.01320056 128.49561043 -32.14233398 128.44604492 C-34.82416822 128.43746266 -37.50391827 128.46648679 -40.18554688 128.49804688 C-41.90104103 128.4996575 -43.61653894 128.49908402 -45.33203125 128.49609375 C-46.12793167 128.50732773 -46.92383209 128.51856171 -47.74385071 128.53013611 C-51.64263997 128.48125003 -53.59943534 128.24328116 -57.01123047 126.17114258 C-59 124 -59 124 -59.48828125 120.765625 C-59.43027344 119.60546875 -59.37226562 118.4453125 -59.3125 117.25 C-59.26738281 116.07953125 -59.22226562 114.9090625 -59.17578125 113.703125 C-59.11777344 112.81109375 -59.05976562 111.9190625 -59 111 C-59.66 111 -60.32 111 -61 111 C-61.1546875 109.39125 -61.1546875 109.39125 -61.3125 107.75 C-61.6759228 104.08657753 -61.6759228 104.08657753 -63.5625 102.0625 C-65.82285514 98.81938175 -65.19436028 95.88720566 -65 92 C-66.134375 91.855625 -67.26875 91.71125 -68.4375 91.5625 C-72 91 -72 91 -73 90 C-73.57241854 84.15263594 -72.34332727 81.22900696 -69.0625 76.4375 C-65.7295316 71.5409168 -63.35147526 67.68507515 -64.41796875 61.625 C-64.61003906 60.75875 -64.80210938 59.8925 -65 59 C-66.08750227 41.88521024 -62.71790897 27.81508302 -51.38110352 14.46557617 C-37.45029331 -0.31728641 -19.12762416 -1.5264202 0 0 Z " fill="#267ABF" transform="translate(73,0)"/>
<path d="M0 0 C2.4375 0.3125 2.4375 0.3125 4.4375 2.3125 C5.53670751 8.53764151 2.22577144 13.52885115 -0.5234375 18.890625 C-1.02920319 19.89841003 -1.53496887 20.90619507 -2.05606079 21.94451904 C-3.12486571 24.06870783 -4.19941392 26.19001527 -5.27929688 28.30859375 C-6.93568691 31.55894215 -8.57476013 34.81756252 -10.2109375 38.078125 C-11.251607 40.14112832 -12.2932407 42.20364559 -13.3359375 44.265625 C-14.07509903 45.73119843 -14.07509903 45.73119843 -14.82919312 47.22637939 C-15.28951935 48.12781677 -15.74984558 49.02925415 -16.22412109 49.95800781 C-16.6282724 50.75265442 -17.03242371 51.54730103 -17.44882202 52.36602783 C-18.5625 54.3125 -18.5625 54.3125 -20.5625 56.3125 C-23.72346801 56.9617543 -25.73200832 56.83048384 -28.49853516 55.10498047 C-30.69046311 53.38658823 -32.78710983 51.5933625 -34.875 49.75 C-36.37951199 48.46402862 -37.88471422 47.17886432 -39.390625 45.89453125 C-40.46666992 44.96568115 -40.46666992 44.96568115 -41.56445312 44.01806641 C-45.12381172 40.97973807 -48.83375095 38.13827563 -52.5625 35.3125 C-52.2325 33.0025 -51.9025 30.6925 -51.5625 28.3125 C-48.74308243 27.4113163 -46.60183973 26.78010414 -43.86767578 28.18066406 C-42.04732976 29.52887573 -40.33289236 30.94943537 -38.625 32.4375 C-37.45049955 33.4208027 -36.27471909 34.40257855 -35.09765625 35.3828125 C-34.23551514 36.11032715 -34.23551514 36.11032715 -33.35595703 36.85253906 C-30.52657175 39.1557958 -27.55444033 41.22616613 -24.5625 43.3125 C-24.31105225 42.48580811 -24.05960449 41.65911621 -23.80053711 40.80737305 C-22.3924865 36.83256641 -20.6391152 33.16006959 -18.75390625 29.39453125 C-18.3865184 28.65547043 -18.01913055 27.91640961 -17.64060974 27.154953 C-16.86685048 25.60171783 -16.0910211 24.04951236 -15.31323242 22.49829102 C-14.12525633 20.12551197 -12.94806946 17.74758467 -11.77148438 15.36914062 C-11.01627348 13.85644691 -10.26043557 12.34406603 -9.50390625 10.83203125 C-9.15380997 10.12262894 -8.80371368 9.41322662 -8.44300842 8.68232727 C-4.32728882 0.52771815 -4.32728882 0.52771815 0 0 Z " fill="#2675BE" transform="translate(123.5625,38.6875)"/>
<path d="M0 0 C5.875 0.875 5.875 0.875 7 2 C7.10094226 4.57021843 7.13971237 7.11298032 7.1328125 9.68359375 C7.13376923 10.45429703 7.13472595 11.22500031 7.13571167 12.01905823 C7.13639349 13.65243613 7.13453909 15.28581673 7.13037109 16.91918945 C7.12503007 19.42340172 7.13031224 21.92743403 7.13671875 24.43164062 C7.13605783 26.0156254 7.13477637 27.59961006 7.1328125 29.18359375 C7.13483673 29.9357164 7.13686096 30.68783905 7.13894653 31.4627533 C7.11495624 36.77008751 7.11495624 36.77008751 6 39 C0.90970056 39.0740421 -4.18028692 39.12855008 -9.27099609 39.16479492 C-11.00347349 39.1799009 -12.73591254 39.20038694 -14.46826172 39.22631836 C-16.95549978 39.26262321 -19.44223326 39.27970765 -21.9296875 39.29296875 C-22.70682098 39.30845261 -23.48395447 39.32393646 -24.28463745 39.33988953 C-26.46826172 39.34057617 -26.46826172 39.34057617 -30 39 C-32 36 -32 36 -31.8125 33.4375 C-31 31 -31 31 -28 29 C-25.36450195 28.77294922 -25.36450195 28.77294922 -22.23828125 28.8046875 C-20.56088867 28.81435547 -20.56088867 28.81435547 -18.84960938 28.82421875 C-17.09874023 28.84935547 -17.09874023 28.84935547 -15.3125 28.875 C-13.54422852 28.88853516 -13.54422852 28.88853516 -11.74023438 28.90234375 C-8.82661974 28.92593577 -5.91341108 28.9588546 -3 29 C-3.01571045 28.26362305 -3.0314209 27.52724609 -3.04760742 26.76855469 C-3.11000472 23.42911471 -3.14900618 20.08979745 -3.1875 16.75 C-3.21263672 15.59113281 -3.23777344 14.43226562 -3.26367188 13.23828125 C-3.27333984 12.12324219 -3.28300781 11.00820312 -3.29296875 9.859375 C-3.3086792 8.83295898 -3.32438965 7.80654297 -3.34057617 6.74902344 C-2.95512763 3.63780439 -2.08024524 2.2937883 0 0 Z " fill="#2651B4" transform="translate(121,89)"/>
<path d="M0 0 C0.75414688 0.00202423 1.50829376 0.00404846 2.28529358 0.00613403 C3.4413485 0.00469894 3.4413485 0.00469894 4.62075806 0.00323486 C6.25413596 0.00255305 7.88751655 0.00440745 9.52088928 0.00857544 C12.02510155 0.01391646 14.52913386 0.00863429 17.03334045 0.00222778 C18.61732523 0.00288871 20.20130989 0.00417017 21.78529358 0.00613403 C22.53741623 0.0041098 23.28953888 0.00208557 24.06445312 0 C29.37178734 0.02399029 29.37178734 0.02399029 31.60169983 1.13894653 C31.65107683 5.65960082 31.68740806 10.1800987 31.71156311 14.70095825 C31.72163101 16.23939752 31.73528629 17.77781761 31.75257874 19.31619263 C31.776793 21.52538786 31.78817474 23.73433048 31.79701233 25.94363403 C31.8073349 26.6332724 31.81765747 27.32291077 31.82829285 28.03344727 C31.82869461 29.7369556 31.72361008 31.43980596 31.60169983 33.13894653 C29.60169983 35.13894653 29.60169983 35.13894653 27.16419983 35.51394653 C24.60169983 35.13894653 24.60169983 35.13894653 22.95985413 33.42703247 C21.36732676 30.74409763 21.25209431 29.25071499 21.30873108 26.15457153 C21.31839905 25.22000122 21.32806702 24.28543091 21.33802795 23.32254028 C21.36316467 22.35445435 21.38830139 21.38636841 21.41419983 20.38894653 C21.43450256 18.9136145 21.43450256 18.9136145 21.45521545 17.40847778 C21.49051257 14.98474239 21.53981929 12.56212508 21.60169983 10.13894653 C20.86532288 10.15465698 20.12894592 10.17036743 19.37025452 10.18655396 C16.03081454 10.24895125 12.69149728 10.28795271 9.35169983 10.32644653 C8.19283264 10.35158325 7.03396545 10.37671997 5.83998108 10.40261841 C4.72494202 10.41228638 3.60990295 10.42195435 2.46107483 10.43191528 C0.92145081 10.45548096 0.92145081 10.45548096 -0.64927673 10.47952271 C-3.76049578 10.09407416 -5.10451188 9.21919178 -7.39830017 7.13894653 C-6.33933999 0.02878529 -6.33933999 0.02878529 0 0 Z " fill="#25B5CF" transform="translate(96.39830017089844,-0.138946533203125)"/>
<path d="M0 0 C0.83096191 -0.00622879 1.66192383 -0.01245758 2.51806641 -0.01887512 C3.41187012 -0.00966537 4.30567383 -0.00045563 5.2265625 0.0090332 C6.60787354 0.00828545 6.60787354 0.00828545 8.01708984 0.00752258 C9.96388914 0.00986288 11.91069147 0.01958882 13.85742188 0.03613281 C16.8401185 0.05972394 19.8219213 0.0566936 22.8046875 0.05004883 C24.69531784 0.05562564 26.58594441 0.06273554 28.4765625 0.0715332 C29.81726807 0.07016609 29.81726807 0.07016609 31.18505859 0.06877136 C32.01602051 0.07830338 32.84698242 0.08783539 33.703125 0.09765625 C34.43354004 0.10226364 35.16395508 0.10687103 35.91650391 0.11161804 C37.8515625 0.37231445 37.8515625 0.37231445 40.8515625 2.37231445 C41.1640625 5.37231445 41.1640625 5.37231445 40.8515625 8.37231445 C38.4453003 10.77857665 37.90049073 10.62432904 34.6171875 10.63110352 C33.74288086 10.63740784 32.86857422 10.64371216 31.96777344 10.65020752 C30.54899902 10.64413483 30.54899902 10.64413483 29.1015625 10.63793945 C28.13250977 10.63985291 27.16345703 10.64176636 26.16503906 10.64373779 C24.11392965 10.64510024 22.06281164 10.64139963 20.01171875 10.63305664 C16.86438711 10.62235805 13.7176263 10.63294999 10.5703125 10.64575195 C8.5807279 10.64443037 6.59114366 10.641868 4.6015625 10.63793945 C3.65571289 10.64198792 2.70986328 10.64603638 1.73535156 10.65020752 C0.86104492 10.6439032 -0.01326172 10.63759888 -0.9140625 10.63110352 C-1.68524414 10.62951233 -2.45642578 10.62792114 -3.25097656 10.62628174 C-5.1484375 10.37231445 -5.1484375 10.37231445 -7.1484375 8.37231445 C-7.50968992 5.55454556 -7.65285635 4.02748121 -5.88818359 1.73542786 C-3.74981842 0.05999128 -2.69164088 -0.00231948 0 0 Z " fill="#26A8CC" transform="translate(67.1484375,33.627685546875)"/>
<path d="M0 0 C1.12347839 0.00607269 1.12347839 0.00607269 2.26965332 0.01226807 C3.03894165 0.01035461 3.80822998 0.00844116 4.60083008 0.00646973 C6.22823412 0.00510799 7.85564902 0.00880368 9.48303223 0.01715088 C11.97855963 0.02785086 14.47336714 0.01725555 16.96887207 0.00445557 C18.54830075 0.00577716 20.12772898 0.00833956 21.70715332 0.01226807 C22.45613892 0.0082196 23.20512451 0.00417114 23.97680664 0 C29.25848089 0.04797064 29.25848089 0.04797064 31.48840332 2.27789307 C31.23840332 5.84039307 31.23840332 5.84039307 30.48840332 9.27789307 C27.5081852 10.76800213 24.44916141 10.4612284 21.17980957 10.48101807 C20.457285 10.48671814 19.73476044 10.49241821 18.99034119 10.49829102 C17.46130844 10.50774025 15.93225533 10.5142747 14.40319824 10.51812744 C12.06340091 10.52784118 9.72447909 10.55886683 7.3848877 10.59039307 C5.89986687 10.59692244 4.41483977 10.60217317 2.92980957 10.60601807 C2.22973282 10.61836487 1.52965607 10.63071167 0.80836487 10.64343262 C-2.09170735 10.63012472 -4.04006266 10.60759411 -6.45715332 8.9175415 C-7.9500626 6.59608314 -7.85778553 4.9781661 -7.51159668 2.27789307 C-4.99454863 -0.23915498 -3.43486769 0.03119707 0 0 Z " fill="#268DC4" transform="translate(67.5115966796875,50.72210693359375)"/>
<path d="M0 0 C1.29292969 -0.00257812 2.58585937 -0.00515625 3.91796875 -0.0078125 C4.59263184 -0.00362305 5.26729492 0.00056641 5.96240234 0.00488281 C8.02341157 0.0155843 10.08354919 0.00498557 12.14453125 -0.0078125 C13.43746094 -0.00523438 14.73039062 -0.00265625 16.0625 0 C17.25423828 0.00225586 18.44597656 0.00451172 19.67382812 0.00683594 C22.53125 0.265625 22.53125 0.265625 24.53125 2.265625 C24.84375 5.265625 24.84375 5.265625 24.53125 8.265625 C21.02995264 10.59982324 19.57663161 10.52273327 15.4375 10.53125 C14.24253906 10.53382812 13.04757813 10.53640625 11.81640625 10.5390625 C10.56730469 10.53132813 9.31820312 10.52359375 8.03125 10.515625 C6.15759766 10.52722656 6.15759766 10.52722656 4.24609375 10.5390625 C2.45365234 10.53519531 2.45365234 10.53519531 0.625 10.53125 C-1.01952148 10.52786621 -1.01952148 10.52786621 -2.69726562 10.52441406 C-5.46875 10.265625 -5.46875 10.265625 -8.46875 8.265625 C-8.78125 5.265625 -8.78125 5.265625 -8.46875 2.265625 C-5.67255868 -0.53056632 -3.90990287 0.00740111 0 0 Z " fill="#25B6CF" transform="translate(83.46875,17.734375)"/>
</svg>
